# xmcd
#
# Track frame offsets:
#	182
#	13502
#	27582
#	38955
#
# Disc length: 662 seconds
# Revision: 6
# Processed by: cddbd v1.5.2PL0 Copyright (c) Steve Scherf et al.
# Submitted via: dBpowerAMP V12.0
#
DISCID=2a029404
DTITLE=Kelly Willis - Fading Fast
DYEAR=1996
DGENRE=Country
TTITLE0=Fading Fast (LP Version)
TTITLE1=What World Are You Living in
TTITLE2=He Don't Care About Me
TTITLE3=Aren't I True
EXTD=
EXTT0=
EXTT1=
EXTT2=
EXTT3=
PLAYORDER=
